<svg width="101" height="93" viewBox="0 0 101 93" fill="none" xmlns="http://www.w3.org/2000/svg">
<g filter="url(#filter0_dd_2727_51436)">
<g clip-path="url(#clip0_2727_51436)">
<mask id="path-1-inside-1_2727_51436" fill="white">
<path d="M6 10C6 6.68629 8.68629 4 12 4H89C92.3137 4 95 6.68629 95 10V78C95 81.3137 92.3137 84 89 84H12C8.68629 84 6 81.3137 6 78V10Z"/>
</mask>
<path d="M6 10C6 6.68629 8.68629 4 12 4H89C92.3137 4 95 6.68629 95 10V78C95 81.3137 92.3137 84 89 84H12C8.68629 84 6 81.3137 6 78V10Z" fill="white"/>
<line x1="16" y1="23.5" x2="85" y2="23.5" stroke="#E7E8EA"/>
<line x1="16" y1="33.5" x2="85" y2="33.5" stroke="#E7E8EA"/>
<line x1="16" y1="43.5" x2="85" y2="43.5" stroke="#E7E8EA"/>
<line x1="16" y1="53.5" x2="85" y2="53.5" stroke="#E7E8EA"/>
<line x1="16" y1="63.5" x2="85" y2="63.5" stroke="#E7E8EA"/>
<line x1="16" y1="73.5" x2="85" y2="73.5" stroke="#E7E8EA"/>
<line x1="23" y1="18.5" x2="32" y2="18.5" stroke="#9A9EA8"/>
<line x1="23" y1="28.5" x2="34" y2="28.5" stroke="#9A9EA8"/>
<line x1="23" y1="38.5" x2="32" y2="38.5" stroke="#9A9EA8"/>
<line x1="23" y1="48.5" x2="36" y2="48.5" stroke="#9A9EA8"/>
<line x1="23" y1="58.5" x2="34" y2="58.5" stroke="#9A9EA8"/>
<line x1="23" y1="68.5" x2="30" y2="68.5" stroke="#9A9EA8"/>
<line x1="39" y1="18.5" x2="57" y2="18.5" stroke="#9A9EA8"/>
<line x1="39" y1="28.5" x2="55" y2="28.5" stroke="#9A9EA8"/>
<line x1="39" y1="38.5" x2="58" y2="38.5" stroke="#9A9EA8"/>
<line x1="39" y1="48.5" x2="53" y2="48.5" stroke="#9A9EA8"/>
<line x1="39" y1="58.5" x2="56" y2="58.5" stroke="#9A9EA8"/>
<line x1="39" y1="68.5" x2="60" y2="68.5" stroke="#9A9EA8"/>
<line x1="64" y1="18.5" x2="77" y2="18.5" stroke="#9A9EA8"/>
<line x1="64" y1="28.5" x2="81" y2="28.5" stroke="#9A9EA8"/>
<line x1="64" y1="38.5" x2="84" y2="38.5" stroke="#9A9EA8"/>
<line x1="64" y1="48.5" x2="73" y2="48.5" stroke="#9A9EA8"/>
<line x1="64" y1="58.5" x2="77" y2="58.5" stroke="#9A9EA8"/>
<path d="M64 68.5L81.5 68.5" stroke="#9A9EA8"/>
<rect x="17" y="17" width="3" height="3" rx="1" fill="#F49B00"/>
<rect x="17" y="27" width="3" height="3" rx="1" fill="#FF7870"/>
<rect x="17" y="37" width="3" height="3" rx="1" fill="#65B000"/>
<rect x="17" y="47" width="3" height="3" rx="1" fill="#65B000"/>
<rect x="17" y="57" width="3" height="3" rx="1" fill="#F49B00"/>
<rect x="17" y="67" width="3" height="3" rx="1" fill="#65B000"/>
</g>
<path d="M12 4V5H89V4V3H12V4ZM95 10H94V78H95H96V10H95ZM89 84V83H12V84V85H89V84ZM6 78H7V10H6H5V78H6ZM12 84V83C9.23858 83 7 80.7614 7 78H6H5C5 81.866 8.13401 85 12 85V84ZM95 78H94C94 80.7614 91.7614 83 89 83V84V85C92.866 85 96 81.866 96 78H95ZM89 4V5C91.7614 5 94 7.23858 94 10H95H96C96 6.13401 92.866 3 89 3V4ZM12 4V3C8.13401 3 5 6.13401 5 10H6H7C7 7.23858 9.23858 5 12 5V4Z" fill="#E7E8EA" mask="url(#path-1-inside-1_2727_51436)"/>
</g>
<defs>
<filter id="filter0_dd_2727_51436" x="0" y="0" width="101" height="93" filterUnits="userSpaceOnUse" color-interpolation-filters="sRGB">
<feFlood flood-opacity="0" result="BackgroundImageFix"/>
<feColorMatrix in="SourceAlpha" type="matrix" values="0 0 0 0 0 0 0 0 0 0 0 0 0 0 0 0 0 0 127 0" result="hardAlpha"/>
<feMorphology radius="2" operator="erode" in="SourceAlpha" result="effect1_dropShadow_2727_51436"/>
<feOffset dy="2"/>
<feGaussianBlur stdDeviation="4"/>
<feComposite in2="hardAlpha" operator="out"/>
<feColorMatrix type="matrix" values="0 0 0 0 0.52549 0 0 0 0 0.537255 0 0 0 0 0.572549 0 0 0 0.08 0"/>
<feBlend mode="normal" in2="BackgroundImageFix" result="effect1_dropShadow_2727_51436"/>
<feColorMatrix in="SourceAlpha" type="matrix" values="0 0 0 0 0 0 0 0 0 0 0 0 0 0 0 0 0 0 127 0" result="hardAlpha"/>
<feMorphology radius="1" operator="erode" in="SourceAlpha" result="effect2_dropShadow_2727_51436"/>
<feOffset dy="4"/>
<feGaussianBlur stdDeviation="3"/>
<feComposite in2="hardAlpha" operator="out"/>
<feColorMatrix type="matrix" values="0 0 0 0 0.52549 0 0 0 0 0.537255 0 0 0 0 0.572549 0 0 0 0.08 0"/>
<feBlend mode="normal" in2="effect1_dropShadow_2727_51436" result="effect2_dropShadow_2727_51436"/>
<feBlend mode="normal" in="SourceGraphic" in2="effect2_dropShadow_2727_51436" result="shape"/>
</filter>
<clipPath id="clip0_2727_51436">
<path d="M6 10C6 6.68629 8.68629 4 12 4H89C92.3137 4 95 6.68629 95 10V78C95 81.3137 92.3137 84 89 84H12C8.68629 84 6 81.3137 6 78V10Z" fill="white"/>
</clipPath>
</defs>
</svg>
