<svg width="101" height="93" viewBox="0 0 101 93" fill="none" xmlns="http://www.w3.org/2000/svg">
<g filter="url(#filter0_dd_2723_44943)">
<g clip-path="url(#clip0_2723_44943)">
<mask id="path-1-inside-1_2723_44943" fill="white">
<path d="M6 10C6 6.68629 8.68629 4 12 4H89C92.3137 4 95 6.68629 95 10V78C95 81.3137 92.3137 84 89 84H12C8.68629 84 6 81.3137 6 78V10Z"/>
</mask>
<path d="M6 10C6 6.68629 8.68629 4 12 4H89C92.3137 4 95 6.68629 95 10V78C95 81.3137 92.3137 84 89 84H12C8.68629 84 6 81.3137 6 78V10Z" fill="#171719"/>
<path d="M76.0601 21.4271C77.2093 22.4491 77.9835 23.8262 78.2593 25.3392C78.5352 26.8521 78.2969 28.4139 77.5823 29.7757" stroke="#00B660" stroke-linecap="round"/>
<path d="M65.4033 29.7744C64.6238 28.3734 64.3573 26.7443 64.6499 25.1679C64.9425 23.5915 65.7757 22.1665 67.0061 21.1385C68.2364 20.1104 69.7868 19.5437 71.3901 19.536C72.9934 19.5282 74.5492 20.0799 75.7894 21.0961" stroke="#E38600" stroke-linecap="round"/>
<line x1="72.2499" y1="24.1164" x2="70.5251" y2="26.991" stroke="#9A9EA8" stroke-width="1.52531" stroke-linecap="round"/>
<mask id="path-6-inside-2_2723_44943" fill="white">
<path d="M19.0391 25.4949C19.0391 25.2187 19.2629 24.9949 19.5391 24.9949C19.8152 24.9949 20.0391 25.2187 20.0391 25.4949V34.4949C20.0391 34.771 19.8152 34.9949 19.5391 34.9949C19.2629 34.9949 19.0391 34.771 19.0391 34.4949V25.4949Z"/>
</mask>
<path d="M20.0391 25.4949H19.0391V34.4949H20.0391H21.0391V25.4949H20.0391ZM19.0391 34.4949H20.0391V25.4949H19.0391H18.0391V34.4949H19.0391ZM19.5391 34.9949V33.9949C19.8152 33.9949 20.0391 34.2187 20.0391 34.4949H19.0391H18.0391C18.0391 35.3233 18.7106 35.9949 19.5391 35.9949V34.9949ZM20.0391 34.4949H19.0391C19.0391 34.2187 19.2629 33.9949 19.5391 33.9949V34.9949V35.9949C20.3675 35.9949 21.0391 35.3233 21.0391 34.4949H20.0391ZM19.5391 24.9949V25.9949C19.2629 25.9949 19.0391 25.771 19.0391 25.4949H20.0391H21.0391C21.0391 24.6664 20.3675 23.9949 19.5391 23.9949V24.9949ZM19.5391 24.9949V23.9949C18.7106 23.9949 18.0391 24.6664 18.0391 25.4949H19.0391H20.0391C20.0391 25.771 19.8152 25.9949 19.5391 25.9949V24.9949Z" fill="#009AE7" mask="url(#path-6-inside-2_2723_44943)"/>
<mask id="path-8-inside-3_2723_44943" fill="white">
<path d="M22.3711 20.8125C22.3711 20.5364 22.595 20.3125 22.8711 20.3125C23.1472 20.3125 23.3711 20.5364 23.3711 20.8125V34.4949C23.3711 34.771 23.1472 34.9949 22.8711 34.9949C22.595 34.9949 22.3711 34.771 22.3711 34.4949V20.8125Z"/>
</mask>
<path d="M23.3711 20.8125H22.3711V34.4949H23.3711H24.3711V20.8125H23.3711ZM22.3711 34.4949H23.3711V20.8125H22.3711H21.3711V34.4949H22.3711ZM22.8711 34.9949V33.9949C23.1472 33.9949 23.3711 34.2187 23.3711 34.4949H22.3711H21.3711C21.3711 35.3233 22.0427 35.9949 22.8711 35.9949V34.9949ZM23.3711 34.4949H22.3711C22.3711 34.2187 22.595 33.9949 22.8711 33.9949V34.9949V35.9949C23.6995 35.9949 24.3711 35.3233 24.3711 34.4949H23.3711ZM22.8711 20.3125V21.3125C22.595 21.3125 22.3711 21.0886 22.3711 20.8125H23.3711H24.3711C24.3711 19.9841 23.6995 19.3125 22.8711 19.3125V20.3125ZM22.8711 20.3125V19.3125C22.0427 19.3125 21.3711 19.9841 21.3711 20.8125H22.3711H23.3711C23.3711 21.0886 23.1472 21.3125 22.8711 21.3125V20.3125Z" fill="#009AE7" mask="url(#path-8-inside-3_2723_44943)"/>
<rect x="26.2891" y="15.2449" width="0.5" height="19.5" rx="0.25" stroke="#009AE7" stroke-width="0.5"/>
<rect x="29.9531" y="23.2449" width="0.5" height="11.5" rx="0.25" stroke="#009AE7" stroke-width="0.5"/>
<rect x="33.2891" y="19.2449" width="0.5" height="15.5" rx="0.25" stroke="#009AE7" stroke-width="0.5"/>
<rect x="37.2057" y="20.4792" width="0.666667" height="14.349" stroke="#009AE7" stroke-width="0.333333"/>
<rect x="37.2891" y="17.2449" width="0.5" height="17.5" rx="0.25" stroke="#D949F9" stroke-width="0.5"/>
<line x1="50.5" y1="5" x2="50.5" y2="84" stroke="#292A2F"/>
<line x1="95" y1="44.5" x2="6" y2="44.5" stroke="#292A2F"/>
<path d="M58.3999 64.6905C60.0961 64.6905 60.7454 59.2398 62.7758 59.2398C64.8061 59.2398 64.4449 63.0926 65.9099 63.0926C67.3748 63.0926 67.1977 67.3563 68.9454 67.3563C70.693 67.3563 70.7962 64.6905 72.1583 64.6905C73.5205 64.6905 74.0174 57.6987 75.3623 57.6987C76.5467 57.6987 77.2107 62.0362 78.395 62.0362C79.6897 62.0362 80.2264 67.5617 81.5211 67.5617C82.8159 67.5617 83.2816 62.9209 84.5764 62.9209" stroke="#D949F9" stroke-linecap="round"/>
<path d="M58.3999 69.2542C60.0961 69.2542 60.7454 66.226 62.7758 66.226C64.8061 66.226 64.4449 68.3664 65.9099 68.3664C67.3748 68.3664 67.1977 70.7352 68.9454 70.7352C70.693 70.7352 70.7962 69.2542 72.1583 69.2542C73.5205 69.2542 74.0174 65.3699 75.3623 65.3699C76.5467 65.3699 77.2107 67.7796 78.395 67.7796C79.6897 67.7796 80.2264 70.8493 81.5211 70.8493C82.8159 70.8493 83.2816 68.2711 84.5764 68.2711" stroke="#009AE7" stroke-linecap="round"/>
<path d="M36 64C36 68.1421 32.6421 71.5 28.5 71.5C24.3579 71.5 21 68.1421 21 64C21 59.8579 24.3579 56.5 28.5 56.5C32.6421 56.5 36 59.8579 36 64ZM24.8465 64C24.8465 66.0178 26.4822 67.6535 28.5 67.6535C30.5178 67.6535 32.1535 66.0178 32.1535 64C32.1535 61.9822 30.5178 60.3465 28.5 60.3465C26.4822 60.3465 24.8465 61.9822 24.8465 64Z" fill="#D949F9"/>
<path d="M36 64C36 62.7765 35.7007 61.5715 35.1281 60.4902C34.5555 59.4089 33.7271 58.4841 32.715 57.7965C31.703 57.1089 30.5381 56.6793 29.3219 56.5452C28.1058 56.4111 26.8753 56.5766 25.7377 57.0272C24.6002 57.4778 23.5902 58.1999 22.7958 59.1305C22.0014 60.0611 21.4467 61.1719 21.1802 62.366C20.9136 63.5602 20.9432 64.8014 21.2665 65.9814C21.5897 67.1615 22.1968 68.2446 23.0347 69.1362L25.8377 66.502C25.4295 66.0677 25.1338 65.5401 24.9763 64.9652C24.8189 64.3904 24.8044 63.7857 24.9343 63.204C25.0641 62.6223 25.3343 62.0812 25.7213 61.6279C26.1083 61.1746 26.6003 60.8229 27.1544 60.6033C27.7085 60.3838 28.308 60.3032 28.9004 60.3685C29.4928 60.4339 30.0603 60.6431 30.5533 60.9781C31.0463 61.3131 31.4498 61.7635 31.7287 62.2903C32.0077 62.817 32.1535 63.404 32.1535 64H36Z" fill="#00B660"/>
<path d="M36 64C36 63.0151 35.806 62.0398 35.4291 61.1299C35.0522 60.2199 34.4997 59.3931 33.8033 58.6967C33.1069 58.0003 32.2801 57.4478 31.3701 57.0709C30.4602 56.694 29.4849 56.5 28.5 56.5L28.5 60.3465C28.9798 60.3465 29.4549 60.441 29.8981 60.6246C30.3414 60.8082 30.7441 61.0773 31.0834 61.4166C31.4227 61.7559 31.6918 62.1586 31.8754 62.6019C32.059 63.0451 32.1535 63.5202 32.1535 64H36Z" fill="#009AE7"/>
</g>
<path d="M12 4V5H89V4V3H12V4ZM95 10H94V78H95H96V10H95ZM89 84V83H12V84V85H89V84ZM6 78H7V10H6H5V78H6ZM12 84V83C9.23858 83 7 80.7614 7 78H6H5C5 81.866 8.13401 85 12 85V84ZM95 78H94C94 80.7614 91.7614 83 89 83V84V85C92.866 85 96 81.866 96 78H95ZM89 4V5C91.7614 5 94 7.23858 94 10H95H96C96 6.13401 92.866 3 89 3V4ZM12 4V3C8.13401 3 5 6.13401 5 10H6H7C7 7.23858 9.23858 5 12 5V4Z" fill="#3A3B41" mask="url(#path-1-inside-1_2723_44943)"/>
</g>
<defs>
<filter id="filter0_dd_2723_44943" x="0" y="0" width="101" height="93" filterUnits="userSpaceOnUse" color-interpolation-filters="sRGB">
<feFlood flood-opacity="0" result="BackgroundImageFix"/>
<feColorMatrix in="SourceAlpha" type="matrix" values="0 0 0 0 0 0 0 0 0 0 0 0 0 0 0 0 0 0 127 0" result="hardAlpha"/>
<feMorphology radius="2" operator="erode" in="SourceAlpha" result="effect1_dropShadow_2723_44943"/>
<feOffset dy="2"/>
<feGaussianBlur stdDeviation="4"/>
<feComposite in2="hardAlpha" operator="out"/>
<feColorMatrix type="matrix" values="0 0 0 0 0.0745098 0 0 0 0 0.0745098 0 0 0 0 0.0784314 0 0 0 0.5 0"/>
<feBlend mode="normal" in2="BackgroundImageFix" result="effect1_dropShadow_2723_44943"/>
<feColorMatrix in="SourceAlpha" type="matrix" values="0 0 0 0 0 0 0 0 0 0 0 0 0 0 0 0 0 0 127 0" result="hardAlpha"/>
<feMorphology radius="1" operator="erode" in="SourceAlpha" result="effect2_dropShadow_2723_44943"/>
<feOffset dy="4"/>
<feGaussianBlur stdDeviation="3"/>
<feComposite in2="hardAlpha" operator="out"/>
<feColorMatrix type="matrix" values="0 0 0 0 0.0745098 0 0 0 0 0.0745098 0 0 0 0 0.0784314 0 0 0 0.5 0"/>
<feBlend mode="normal" in2="effect1_dropShadow_2723_44943" result="effect2_dropShadow_2723_44943"/>
<feBlend mode="normal" in="SourceGraphic" in2="effect2_dropShadow_2723_44943" result="shape"/>
</filter>
<clipPath id="clip0_2723_44943">
<path d="M6 10C6 6.68629 8.68629 4 12 4H89C92.3137 4 95 6.68629 95 10V78C95 81.3137 92.3137 84 89 84H12C8.68629 84 6 81.3137 6 78V10Z" fill="white"/>
</clipPath>
</defs>
</svg>
