<svg width="101" height="93" viewBox="0 0 101 93" fill="none" xmlns="http://www.w3.org/2000/svg">
<g filter="url(#filter0_dd_2727_48154)">
<g clip-path="url(#clip0_2727_48154)">
<mask id="path-1-inside-1_2727_48154" fill="white">
<path d="M6 10C6 6.68629 8.68629 4 12 4H89C92.3137 4 95 6.68629 95 10V78C95 81.3137 92.3137 84 89 84H12C8.68629 84 6 81.3137 6 78V10Z"/>
</mask>
<path d="M6 10C6 6.68629 8.68629 4 12 4H89C92.3137 4 95 6.68629 95 10V78C95 81.3137 92.3137 84 89 84H12C8.68629 84 6 81.3137 6 78V10Z" fill="#171719"/>
<rect width="3" height="15" transform="translate(16 22)" fill="#D949F9"/>
<rect width="3" height="18" transform="translate(19 19)" fill="#009AE7"/>
<rect width="3" height="13" transform="translate(25 24)" fill="#D949F9"/>
<rect width="3" height="20" transform="translate(28 17)" fill="#009AE7"/>
<rect width="3" height="16" transform="translate(34 21)" fill="#D949F9"/>
<rect width="3" height="19" transform="translate(37 18)" fill="#009AE7"/>
<rect width="3" height="14" transform="translate(43 23)" fill="#D949F9"/>
<rect width="3" height="18" transform="translate(46 19)" fill="#009AE7"/>
<rect width="3" height="14" transform="translate(52 23)" fill="#D949F9"/>
<rect width="3" height="17" transform="translate(55 20)" fill="#009AE7"/>
<rect width="3" height="12" transform="translate(61 25)" fill="#D949F9"/>
<rect width="3" height="13" transform="translate(64 24)" fill="#009AE7"/>
<rect width="3" height="13" transform="translate(70 24)" fill="#D949F9"/>
<rect width="3" height="16" transform="translate(73 21)" fill="#009AE7"/>
<rect width="3" height="13" transform="translate(79 24)" fill="#D949F9"/>
<rect width="3" height="19" transform="translate(82 18)" fill="#009AE7"/>
<line x1="16" y1="42.5" x2="85" y2="42.5" stroke="#292A2F"/>
<line x1="16" y1="52.5" x2="85" y2="52.5" stroke="#292A2F"/>
<line x1="16" y1="62.5" x2="85" y2="62.5" stroke="#292A2F"/>
<line x1="16" y1="52.5" x2="85" y2="52.5" stroke="#292A2F"/>
<line x1="16" y1="62.5" x2="85" y2="62.5" stroke="#292A2F"/>
<line x1="16" y1="72.5" x2="85" y2="72.5" stroke="#292A2F"/>
<line x1="16" y1="47.5" x2="26" y2="47.5" stroke="#009AE7"/>
<line x1="16" y1="57.5" x2="26" y2="57.5" stroke="#009AE7"/>
<line x1="16" y1="67.5" x2="26" y2="67.5" stroke="#009AE7"/>
<line x1="29" y1="47.5" x2="34" y2="47.5" stroke="#9A9EA8"/>
<line x1="29" y1="57.5" x2="34" y2="57.5" stroke="#9A9EA8"/>
<line x1="29" y1="67.5" x2="34" y2="67.5" stroke="#9A9EA8"/>
<line x1="39" y1="47.5" x2="50" y2="47.5" stroke="#9A9EA8"/>
<line x1="39" y1="57.5" x2="50" y2="57.5" stroke="#9A9EA8"/>
<line x1="39" y1="67.5" x2="50" y2="67.5" stroke="#9A9EA8"/>
<line x1="54" y1="47.5" x2="60" y2="47.5" stroke="#9A9EA8"/>
<line x1="54" y1="57.5" x2="60" y2="57.5" stroke="#9A9EA8"/>
<line x1="54" y1="67.5" x2="60" y2="67.5" stroke="#9A9EA8"/>
<line x1="64" y1="47.5" x2="84" y2="47.5" stroke="#9A9EA8"/>
<line x1="64" y1="57.5" x2="84" y2="57.5" stroke="#9A9EA8"/>
<line x1="64" y1="67.5" x2="84" y2="67.5" stroke="#9A9EA8"/>
</g>
<path d="M12 4V5H89V4V3H12V4ZM95 10H94V78H95H96V10H95ZM89 84V83H12V84V85H89V84ZM6 78H7V10H6H5V78H6ZM12 84V83C9.23858 83 7 80.7614 7 78H6H5C5 81.866 8.13401 85 12 85V84ZM95 78H94C94 80.7614 91.7614 83 89 83V84V85C92.866 85 96 81.866 96 78H95ZM89 4V5C91.7614 5 94 7.23858 94 10H95H96C96 6.13401 92.866 3 89 3V4ZM12 4V3C8.13401 3 5 6.13401 5 10H6H7C7 7.23858 9.23858 5 12 5V4Z" fill="#292A2F" mask="url(#path-1-inside-1_2727_48154)"/>
</g>
<defs>
<filter id="filter0_dd_2727_48154" x="0" y="0" width="101" height="93" filterUnits="userSpaceOnUse" color-interpolation-filters="sRGB">
<feFlood flood-opacity="0" result="BackgroundImageFix"/>
<feColorMatrix in="SourceAlpha" type="matrix" values="0 0 0 0 0 0 0 0 0 0 0 0 0 0 0 0 0 0 127 0" result="hardAlpha"/>
<feMorphology radius="2" operator="erode" in="SourceAlpha" result="effect1_dropShadow_2727_48154"/>
<feOffset dy="2"/>
<feGaussianBlur stdDeviation="4"/>
<feComposite in2="hardAlpha" operator="out"/>
<feColorMatrix type="matrix" values="0 0 0 0 0.0745098 0 0 0 0 0.0745098 0 0 0 0 0.0784314 0 0 0 0.5 0"/>
<feBlend mode="normal" in2="BackgroundImageFix" result="effect1_dropShadow_2727_48154"/>
<feColorMatrix in="SourceAlpha" type="matrix" values="0 0 0 0 0 0 0 0 0 0 0 0 0 0 0 0 0 0 127 0" result="hardAlpha"/>
<feMorphology radius="1" operator="erode" in="SourceAlpha" result="effect2_dropShadow_2727_48154"/>
<feOffset dy="4"/>
<feGaussianBlur stdDeviation="3"/>
<feComposite in2="hardAlpha" operator="out"/>
<feColorMatrix type="matrix" values="0 0 0 0 0.0745098 0 0 0 0 0.0745098 0 0 0 0 0.0784314 0 0 0 0.5 0"/>
<feBlend mode="normal" in2="effect1_dropShadow_2727_48154" result="effect2_dropShadow_2727_48154"/>
<feBlend mode="normal" in="SourceGraphic" in2="effect2_dropShadow_2727_48154" result="shape"/>
</filter>
<clipPath id="clip0_2727_48154">
<path d="M6 10C6 6.68629 8.68629 4 12 4H89C92.3137 4 95 6.68629 95 10V78C95 81.3137 92.3137 84 89 84H12C8.68629 84 6 81.3137 6 78V10Z" fill="white"/>
</clipPath>
</defs>
</svg>
