<svg width="101" height="93" viewBox="0 0 101 93" fill="none" xmlns="http://www.w3.org/2000/svg">
<g filter="url(#filter0_dd_2727_51447)">
<g clip-path="url(#clip0_2727_51447)">
<mask id="path-1-inside-1_2727_51447" fill="white">
<path d="M6 10C6 6.68629 8.68629 4 12 4H89C92.3137 4 95 6.68629 95 10V78C95 81.3137 92.3137 84 89 84H12C8.68629 84 6 81.3137 6 78V10Z"/>
</mask>
<path d="M6 10C6 6.68629 8.68629 4 12 4H89C92.3137 4 95 6.68629 95 10V78C95 81.3137 92.3137 84 89 84H12C8.68629 84 6 81.3137 6 78V10Z" fill="white"/>
<rect width="3" height="11" transform="translate(16 41)" fill="#F8AF00"/>
<rect width="3" height="9" transform="translate(16 32)" fill="#CFD2D8"/>
<rect width="3" height="24" transform="translate(16 47)" fill="#FF7B31"/>
<rect width="3" height="11" transform="translate(16 60)" fill="#D52C33"/>
<rect width="3" height="20" transform="translate(22 32)" fill="#F8AF00"/>
<rect width="3" height="20" transform="translate(22 21)" fill="#CFD2D8"/>
<rect width="3" height="19" transform="translate(22 52)" fill="#FF7B31"/>
<rect width="3" height="11" transform="translate(22 60)" fill="#D52C33"/>
<rect width="3" height="20" transform="translate(28 32)" fill="#F8AF00"/>
<rect width="3" height="20" transform="translate(28 21)" fill="#CFD2D8"/>
<rect width="3" height="24" transform="translate(28 47)" fill="#FF7B31"/>
<rect width="3" height="11" transform="translate(28 60)" fill="#D52C33"/>
<rect width="3" height="16" transform="translate(34 36)" fill="#F8AF00"/>
<rect width="3" height="13" transform="translate(34 28)" fill="#CFD2D8"/>
<rect width="3" height="24" transform="translate(34 47)" fill="#FF7B31"/>
<rect width="3" height="11" transform="translate(34 60)" fill="#D52C33"/>
<rect width="3" height="16" transform="translate(40 36)" fill="#F8AF00"/>
<rect width="3" height="13" transform="translate(40 28)" fill="#CFD2D8"/>
<rect width="3" height="19" transform="translate(40 52)" fill="#FF7B31"/>
<rect width="3" height="4" transform="translate(40 67)" fill="#D52C33"/>
<rect width="3" height="28" transform="translate(46 28)" fill="#F8AF00"/>
<rect width="3" height="30" transform="translate(46 17)" fill="#CFD2D8"/>
<rect width="3" height="19" transform="translate(46 52)" fill="#FF7B31"/>
<rect width="3" height="11" transform="translate(46 60)" fill="#D52C33"/>
<rect width="3" height="20" transform="translate(52 36)" fill="#F8AF00"/>
<rect width="3" height="19" transform="translate(52 28)" fill="#CFD2D8"/>
<rect width="3" height="19" transform="translate(52 52)" fill="#FF7B31"/>
<rect width="3" height="4" transform="translate(52 67)" fill="#D52C33"/>
<rect width="3" height="20" transform="translate(58 32)" fill="#F8AF00"/>
<rect width="3" height="20" transform="translate(58 21)" fill="#CFD2D8"/>
<rect width="3" height="24" transform="translate(58 47)" fill="#FF7B31"/>
<rect width="3" height="11" transform="translate(58 60)" fill="#D52C33"/>
<rect width="3" height="20" transform="translate(64 36)" fill="#F8AF00"/>
<rect width="3" height="19" transform="translate(64 28)" fill="#CFD2D8"/>
<rect width="3" height="19" transform="translate(64 52)" fill="#FF7B31"/>
<rect width="3" height="15" transform="translate(64 56)" fill="#D52C33"/>
<rect width="3" height="24" transform="translate(70 32)" fill="#F8AF00"/>
<rect width="3" height="26" transform="translate(70 21)" fill="#CFD2D8"/>
<rect width="3" height="19" transform="translate(70 52)" fill="#FF7B31"/>
<rect width="3" height="4" transform="translate(70 67)" fill="#D52C33"/>
<rect width="3" height="20" transform="translate(76 32)" fill="#F8AF00"/>
<rect width="3" height="20" transform="translate(76 21)" fill="#CFD2D8"/>
<rect width="3" height="24" transform="translate(76 47)" fill="#FF7B31"/>
<rect width="3" height="15" transform="translate(76 56)" fill="#D52C33"/>
<rect width="3" height="11" transform="translate(82 36)" fill="#F8AF00"/>
<rect width="3" height="8" transform="translate(82 28)" fill="#CFD2D8"/>
<rect width="3" height="24" transform="translate(82 47)" fill="#FF7B31"/>
<rect width="3" height="15" transform="translate(82 56)" fill="#D52C33"/>
</g>
<path d="M12 4V5H89V4V3H12V4ZM95 10H94V78H95H96V10H95ZM89 84V83H12V84V85H89V84ZM6 78H7V10H6H5V78H6ZM12 84V83C9.23858 83 7 80.7614 7 78H6H5C5 81.866 8.13401 85 12 85V84ZM95 78H94C94 80.7614 91.7614 83 89 83V84V85C92.866 85 96 81.866 96 78H95ZM89 4V5C91.7614 5 94 7.23858 94 10H95H96C96 6.13401 92.866 3 89 3V4ZM12 4V3C8.13401 3 5 6.13401 5 10H6H7C7 7.23858 9.23858 5 12 5V4Z" fill="#E7E8EA" mask="url(#path-1-inside-1_2727_51447)"/>
</g>
<defs>
<filter id="filter0_dd_2727_51447" x="0" y="0" width="101" height="93" filterUnits="userSpaceOnUse" color-interpolation-filters="sRGB">
<feFlood flood-opacity="0" result="BackgroundImageFix"/>
<feColorMatrix in="SourceAlpha" type="matrix" values="0 0 0 0 0 0 0 0 0 0 0 0 0 0 0 0 0 0 127 0" result="hardAlpha"/>
<feMorphology radius="2" operator="erode" in="SourceAlpha" result="effect1_dropShadow_2727_51447"/>
<feOffset dy="2"/>
<feGaussianBlur stdDeviation="4"/>
<feComposite in2="hardAlpha" operator="out"/>
<feColorMatrix type="matrix" values="0 0 0 0 0.52549 0 0 0 0 0.537255 0 0 0 0 0.572549 0 0 0 0.08 0"/>
<feBlend mode="normal" in2="BackgroundImageFix" result="effect1_dropShadow_2727_51447"/>
<feColorMatrix in="SourceAlpha" type="matrix" values="0 0 0 0 0 0 0 0 0 0 0 0 0 0 0 0 0 0 127 0" result="hardAlpha"/>
<feMorphology radius="1" operator="erode" in="SourceAlpha" result="effect2_dropShadow_2727_51447"/>
<feOffset dy="4"/>
<feGaussianBlur stdDeviation="3"/>
<feComposite in2="hardAlpha" operator="out"/>
<feColorMatrix type="matrix" values="0 0 0 0 0.52549 0 0 0 0 0.537255 0 0 0 0 0.572549 0 0 0 0.08 0"/>
<feBlend mode="normal" in2="effect1_dropShadow_2727_51447" result="effect2_dropShadow_2727_51447"/>
<feBlend mode="normal" in="SourceGraphic" in2="effect2_dropShadow_2727_51447" result="shape"/>
</filter>
<clipPath id="clip0_2727_51447">
<path d="M6 10C6 6.68629 8.68629 4 12 4H89C92.3137 4 95 6.68629 95 10V78C95 81.3137 92.3137 84 89 84H12C8.68629 84 6 81.3137 6 78V10Z" fill="white"/>
</clipPath>
</defs>
</svg>
