<svg width="24" height="24" viewBox="0 0 24 24" fill="none" xmlns="http://www.w3.org/2000/svg">
<g clip-path="url(#clip0_1085_64248)">
<path d="M0 3C0 1.34315 1.34315 0 3 0H21C22.6569 0 24 1.34315 24 3V21C24 22.6569 22.6569 24 21 24H3C1.34315 24 0 22.6569 0 21V3Z" fill="#009AE7"/>
<path d="M3 0.299805H21C22.4912 0.299805 23.7002 1.50883 23.7002 3V21C23.7002 22.4912 22.4912 23.7002 21 23.7002H3C1.50883 23.7002 0.299805 22.4912 0.299805 21V3C0.299805 1.50883 1.50883 0.299805 3 0.299805Z" stroke="#161617" stroke-opacity="0.08" stroke-width="0.6"/>
<path d="M19.0119 9.15191L14.8553 4.98992C14.363 4.52454 13.7767 4.17016 13.1358 3.9507C11.7157 3.47786 10.3023 3.84694 9.15773 4.98992L4.99088 9.15191C4.52553 9.6442 4.17117 10.2306 3.95172 10.8715C3.47721 12.2917 3.84628 13.7051 4.99088 14.8481L9.15263 19.0101C9.6441 19.4757 10.2299 19.8301 10.8704 20.0493C11.2584 20.1805 11.6649 20.2483 12.0746 20.25C13.0729 20.25 14.0287 19.8282 14.8485 19.0101L19.0085 14.8481C19.4745 14.356 19.8294 13.7695 20.0493 13.1285C20.5222 11.7083 20.1531 10.2966 19.0085 9.15191H19.0119ZM12.3211 6.19753C12.6356 6.29833 12.9252 6.46406 13.1716 6.68397L14.4011 7.91539L12.0031 10.3119L9.60503 7.91369L10.8415 6.67547C11.1731 6.3455 11.6409 5.99512 12.3245 6.19583L12.3211 6.19753ZM6.20182 11.6777C6.30294 11.363 6.46926 11.0733 6.68994 10.8273L7.91959 9.59753L10.3177 11.9957L7.91789 14.394L6.68143 13.1557C6.34979 12.8257 6.00114 12.358 6.20012 11.6743L6.20182 11.6777ZM11.6817 17.7974C11.3669 17.6974 11.077 17.5316 10.8313 17.3109L9.60503 16.0948L12.0031 13.6949L14.4011 16.0931L13.1647 17.3313C12.8331 17.6613 12.3671 18.0117 11.6817 17.811V17.7974ZM17.8044 12.3291C17.7033 12.6434 17.5376 12.9331 17.3179 13.1795L16.0884 14.394L13.6902 11.9957L16.0884 9.59753L17.3248 10.8341C17.6564 11.164 18.0051 11.6318 17.8061 12.3155" fill="white"/>
</g>
<defs>
<clipPath id="clip0_1085_64248">
<path d="M0 4C0 1.79086 1.79086 0 4 0H20C22.2091 0 24 1.79086 24 4V20C24 22.2091 22.2091 24 20 24H4C1.79086 24 0 22.2091 0 20V4Z" fill="white"/>
</clipPath>
</defs>
</svg>
