<svg width="117" height="26" viewBox="0 0 117 26" fill="none" xmlns="http://www.w3.org/2000/svg">
<path d="M23.6118 8.51211L17.181 1.95381C16.4195 1.22048 15.5123 0.66207 14.5208 0.316252C12.3237 -0.428826 10.1372 0.15276 8.36634 1.95381L1.91978 8.51211C1.19983 9.28782 0.651599 10.2118 0.312088 11.2217C-0.42203 13.4596 0.148951 15.6868 1.91978 17.4879L8.35844 24.0462C9.1188 24.7798 10.0251 25.3383 11.016 25.6837C11.6163 25.8904 12.2453 25.9972 12.8789 26C14.4235 26 15.9022 25.3353 17.1705 24.0462L23.6065 17.4879C24.3274 16.7124 24.8766 15.7884 25.2169 14.7783C25.9483 12.5404 25.3774 10.3158 23.6065 8.51211H23.6118ZM13.2605 3.85671C13.7469 4.01555 14.1951 4.2767 14.5761 4.62323L16.4785 6.56365L12.7684 10.34L9.05836 6.56097L10.9713 4.60983C11.4844 4.08988 12.208 3.53777 13.2657 3.85403L13.2605 3.85671ZM3.79323 12.4921C3.94966 11.9963 4.20699 11.5397 4.5484 11.152L6.45079 9.2143L10.1609 12.9933L6.44816 16.7723L4.53524 14.8212C4.02215 14.3012 3.48274 13.5642 3.7906 12.4868L3.79323 12.4921ZM12.2711 22.1352C11.7841 21.9778 11.3356 21.7165 10.9555 21.3687L9.05836 19.4524L12.7684 15.6708L16.4785 19.4497L14.5656 21.4009C14.0525 21.9208 13.3315 22.4729 12.2711 22.1567V22.1352ZM21.7436 13.5186C21.5872 14.0138 21.3309 14.4703 20.9911 14.8587L19.0887 16.7723L15.3786 12.9933L19.0887 9.2143L21.0016 11.1628C21.5147 11.6827 22.0541 12.4197 21.7462 13.4972" fill="#009AE7"/>
<path d="M38.0363 22.022H41.2945V12.7179C41.2945 9.84831 39.5996 7.72999 36.7077 7.72999C35.2991 7.72999 33.7899 8.37239 33.0057 9.55366V2.65186H29.75V22.0141H33.0057V14.6743C33.0057 12.9594 33.8415 10.8146 35.7944 10.8146C37.5152 10.8146 38.0363 11.8047 38.0363 13.416V22.022ZM51.1932 16.5192C51.1932 18.5658 49.7717 19.6834 47.7569 19.6834C46.7482 19.6834 45.8427 19.0197 45.8427 17.9553C45.8427 16.8377 46.7998 16.2272 47.7827 16.1475L51.1932 15.8821V16.5192ZM53.9071 22.237C54.4632 22.2557 55.0147 22.1278 55.5092 21.8654V19.4179C55.3738 19.4507 55.2354 19.4685 55.0964 19.471C54.5546 19.471 54.3483 19.2321 54.3483 18.5924V13.4611C54.3889 12.5134 54.2568 11.5662 53.9587 10.6686C53.1848 8.59271 51.219 7.84944 48.9204 7.84944C45.9201 7.84944 43.5157 9.23246 43.3352 12.3436H46.4644C46.5418 11.0667 47.419 10.3766 48.9204 10.3766C50.7546 10.3766 51.1932 11.2526 51.1932 12.5559V13.408L47.2358 13.6921C44.6766 13.8779 42.6876 15.3936 42.6876 18.0269C42.6876 20.2886 44.3413 22.3618 47.5479 22.3618C49.4596 22.3618 51.01 21.4062 51.6318 20.2886C51.7349 21.3265 52.5089 22.2291 53.9045 22.2291L53.9071 22.237ZM64.0586 11.1384C64.2311 11.1397 64.4033 11.1512 64.5745 11.1729V8.04057C64.4352 8.04057 64.2959 8.00871 64.1592 8.00871C62.5804 8.00871 60.9783 8.67235 60.3592 10.2677L60.0728 8.19453H57.3305V22.0247H60.5888V15.0565C60.5888 12.8214 61.778 11.1464 64.0508 11.1464L64.0586 11.1384ZM74.2539 22.03H77.4864V12.7948C77.4864 9.92263 75.8043 7.84944 72.9356 7.84944C71.3878 7.84944 69.7831 8.51307 68.9808 9.97307L68.7486 8.19188H66.0424V22.022H69.2723V16.3864C69.2723 15.2158 69.2465 13.7797 69.7135 12.6887C70.152 11.6773 70.9028 10.934 72.0353 10.934C73.7405 10.934 74.2565 11.9188 74.2565 13.5408L74.2539 22.03ZM88.0945 13.7319H82.2848C82.2705 12.9521 82.5174 12.1911 82.9839 11.5764C83.2525 11.2313 83.5958 10.9556 83.9864 10.7713C84.377 10.5869 84.804 10.499 85.2335 10.5146C85.6087 10.494 85.984 10.5541 86.3354 10.6913C86.6868 10.8284 87.0065 11.0395 87.2741 11.311C87.79 11.8976 88.0764 12.694 88.1022 13.7319H88.0945ZM91.3321 15.2211C91.3837 13.493 91.1515 11.9242 90.1686 10.4058C89.0593 8.67766 87.2483 7.85475 85.267 7.85475C84.4731 7.83092 83.6827 7.97426 82.9445 8.27599C82.2064 8.57772 81.5359 9.03147 80.9742 9.6094C79.6843 10.9659 79.0368 12.9329 79.0368 15.1415C79.0368 17.4031 79.7592 19.3436 81.1007 20.6735C81.6617 21.2337 82.3259 21.6728 83.0542 21.9651C83.7826 22.2573 84.5603 22.3967 85.3418 22.3751C87.0471 22.3751 88.7265 21.8176 89.8642 20.4346C90.3801 19.7949 90.9245 18.7065 91.0019 17.8809H87.9061C87.7974 18.3244 87.5736 18.729 87.2586 19.0516C86.7942 19.5294 86.2267 19.7152 85.2954 19.7152C84.5488 19.7127 83.8332 19.4075 83.3038 18.8658C82.9692 18.5062 82.7094 18.0801 82.5404 17.6136C82.3714 17.1471 82.2967 16.6501 82.3209 16.1528H91.3063C91.3063 15.8582 91.3321 15.2211 91.3321 15.2211ZM95.6713 12.0569C95.679 11.7342 95.7818 11.4216 95.9661 11.1604C96.1504 10.8992 96.4074 10.7017 96.7032 10.5942C97.1485 10.4224 97.6243 10.35 98.0989 10.3819C98.7409 10.3635 99.3668 10.5904 99.8557 11.019C100.194 11.3648 100.388 11.8321 100.397 12.3223H103.475C103.437 11.2546 103.012 10.24 102.286 9.47667C101.306 8.383 99.6777 7.8521 98.0756 7.8521C96.3936 7.8521 94.9799 8.35646 93.9918 9.23511C93.5507 9.61415 93.1983 10.0908 92.9612 10.6295C92.724 11.1682 92.608 11.755 92.622 12.3462C92.622 14.1009 93.8628 15.6432 95.6971 16.044C96.8864 16.3095 98.2304 16.3891 99.4197 16.5749C100.245 16.7076 100.764 17.2385 100.764 18.0376C100.764 19.5533 99.1101 19.7922 98.024 19.7922C97.0927 19.7922 96.4994 19.6064 95.9809 19.1817C95.6236 18.8523 95.3838 18.4094 95.2998 17.9234H92.2556C92.3806 19.0144 92.8758 20.025 93.6539 20.777C94.7658 21.8681 96.2904 22.3698 97.9983 22.3698C99.8325 22.3698 101.512 21.892 102.598 20.777C102.984 20.3803 103.287 19.9063 103.488 19.3845C103.689 18.8626 103.784 18.304 103.767 17.7429C103.767 15.5609 102.219 14.1779 100.096 13.8328C98.7774 13.6204 98.442 13.5939 97.2269 13.4346C96.5046 13.3284 95.679 13.0338 95.679 12.0516L95.6713 12.0569ZM112.798 12.317H115.866C115.827 11.2493 115.403 10.2347 114.677 9.47137C113.694 8.38301 112.066 7.8521 110.474 7.8521C108.795 7.8521 107.378 8.35646 106.39 9.23511C105.949 9.61415 105.597 10.0908 105.36 10.6295C105.122 11.1682 105.006 11.755 105.02 12.3462C105.02 14.1009 106.261 15.6432 108.096 16.044C109.285 16.3095 110.629 16.3891 111.818 16.5749C112.644 16.7076 113.162 17.2385 113.162 18.0376C113.162 19.5533 111.506 19.7922 110.423 19.7922C109.491 19.7922 108.898 19.6064 108.379 19.1817C108.022 18.8523 107.782 18.4094 107.698 17.9234H104.644C104.769 19.015 105.265 20.0259 106.045 20.777C107.154 21.8681 108.679 22.3698 110.386 22.3698C112.221 22.3698 113.9 21.892 114.986 20.777C115.371 20.3798 115.673 19.9057 115.873 19.3839C116.073 18.862 116.167 18.3036 116.15 17.7429C116.15 15.5609 114.602 14.1779 112.479 13.8328C111.16 13.6204 110.825 13.5939 109.61 13.4346C108.888 13.3284 108.062 13.0338 108.062 12.0516C108.07 11.7289 108.173 11.4162 108.357 11.155C108.541 10.8938 108.798 10.6964 109.094 10.5889C109.539 10.4171 110.015 10.3447 110.49 10.3766C111.132 10.3582 111.757 10.5851 112.246 11.0137C112.585 11.3592 112.78 11.8264 112.791 12.317" fill="#161617"/>
</svg>
