<svg width="20" height="20" viewBox="0 0 20 20" fill="none" xmlns="http://www.w3.org/2000/svg">
<mask id="mask0_965_69892" style="mask-type:alpha" maskUnits="userSpaceOnUse" x="1" y="1" width="18" height="18">
<path d="M2.61364 18.126C2.2057 18.126 1.875 17.7953 1.875 17.3873C1.875 16.9794 2.2057 16.6487 2.61364 16.6487C3.02157 16.6487 3.35227 16.9794 3.35227 17.3873C3.35227 17.7953 3.02157 18.126 2.61364 18.126Z" fill="black"/>
<path d="M10 18.126C9.59206 18.126 9.26136 17.7953 9.26136 17.3873C9.26136 16.9794 9.59206 16.6487 10 16.6487C10.4079 16.6487 10.7386 16.9794 10.7386 17.3873C10.7386 17.7953 10.4079 18.126 10 18.126Z" fill="black"/>
<path d="M17.3864 18.126C16.9784 18.126 16.6477 17.7953 16.6477 17.3873C16.6477 16.9794 16.9784 16.6487 17.3864 16.6487C17.7943 16.6487 18.125 16.9794 18.125 17.3873C18.125 17.7953 17.7943 18.126 17.3864 18.126Z" fill="black"/>
<path d="M2.61364 17.3873V12.2169C2.61364 11.8089 2.94434 11.4782 3.35227 11.4782H16.6477C17.0557 11.4782 17.3864 11.8089 17.3864 12.2169V17.3873M10 11.4782V16.6487M10 16.6487C9.59206 16.6487 9.26136 16.9794 9.26136 17.3873C9.26136 17.7953 9.59206 18.126 10 18.126C10.4079 18.126 10.7386 17.7953 10.7386 17.3873C10.7386 16.9794 10.4079 16.6487 10 16.6487ZM2.61364 18.126C2.2057 18.126 1.875 17.7953 1.875 17.3873C1.875 16.9794 2.2057 16.6487 2.61364 16.6487C3.02157 16.6487 3.35227 16.9794 3.35227 17.3873C3.35227 17.7953 3.02157 18.126 2.61364 18.126ZM17.3864 18.126C16.9784 18.126 16.6477 17.7953 16.6477 17.3873C16.6477 16.9794 16.9784 16.6487 17.3864 16.6487C17.7943 16.6487 18.125 16.9794 18.125 17.3873C18.125 17.7953 17.7943 18.126 17.3864 18.126ZM7.34091 7.78507H12.6591C12.8223 7.78507 12.9545 7.65279 12.9545 7.48961V2.17143C12.9545 2.00826 12.8223 1.87598 12.6591 1.87598H7.34091C7.17773 1.87598 7.04545 2.00826 7.04545 2.17143V7.48961C7.04545 7.65279 7.17773 7.78507 7.34091 7.78507Z" stroke="black"/>
</mask>
<g mask="url(#mask0_965_69892)">
<rect width="20" height="20" fill="#6C6D87"/>
</g>
</svg>
