<svg width="16" height="16" viewBox="0 0 16 16" fill="none" xmlns="http://www.w3.org/2000/svg">
<mask id="mask0_953_31318" style="mask-type:alpha" maskUnits="userSpaceOnUse" x="1" y="1" width="14" height="14">
<path d="M10.4876 11.3119C10.4876 11.588 10.2637 11.8119 9.9876 11.8119C9.71146 11.8119 9.4876 11.588 9.4876 11.3119C9.4876 11.0357 9.71146 10.8119 9.9876 10.8119C10.2637 10.8119 10.4876 11.0357 10.4876 11.3119Z" fill="#D9D9D9"/>
<path d="M10.0001 6V2.4C10.0001 2.17909 9.82102 2 9.60009 2H6.40009C6.17918 2 6.00009 2.17909 6.00009 2.4V3.33333H2.40009C2.17918 3.33333 2.00009 3.51242 2.00009 3.73333L2 6.80927M10.0001 6H13.6001C13.821 6 14.0001 6.17909 14.0001 6.4V13.6C14.0001 13.8209 13.821 14 13.6001 14H2.40009C2.17918 14 2.00009 13.8209 2.00009 13.6L2 10.5093M10.0001 6V11.3333M2 6.80927V10.5093M2 6.80927H6M2 10.5093H6M10.4876 11.3119C10.4876 11.588 10.2637 11.8119 9.9876 11.8119C9.71146 11.8119 9.4876 11.588 9.4876 11.3119C9.4876 11.0357 9.71146 10.8119 9.9876 10.8119C10.2637 10.8119 10.4876 11.0357 10.4876 11.3119Z" stroke="white" stroke-linecap="round" stroke-linejoin="round"/>
</mask>
<g mask="url(#mask0_953_31318)">
<rect width="16" height="16" fill="#6D6F78"/>
</g>
</svg>
