<svg width="17" height="17" viewBox="0 0 17 17" fill="none" xmlns="http://www.w3.org/2000/svg">
<path d="M12.0568 9.97176L15.0756 12.9918C15.3623 13.2849 15.5218 13.6794 15.5195 14.0894C15.5172 14.4995 15.3533 14.8921 15.0633 15.182C14.7734 15.472 14.3808 15.6359 13.9707 15.6382C13.5607 15.6405 13.1663 15.481 12.8731 15.1943L8.03934 10.3605M3.91059 3.82426L2.25809 4.37426L0.606842 1.62176L1.70809 0.520508L4.46059 2.17176L3.91059 3.82426ZM3.91059 3.82426L6.11434 6.02801M6.49434 7.48676L0.988092 12.9918C0.84081 13.1358 0.723562 13.3076 0.643136 13.4972C0.562711 13.6869 0.520707 13.8906 0.519556 14.0966C0.518404 14.3026 0.558129 14.5068 0.636429 14.6973C0.714729 14.8879 0.830049 15.061 0.975712 15.2066C1.12138 15.3523 1.29449 15.4676 1.48503 15.5459C1.67556 15.6242 1.87974 15.6639 2.08574 15.6628C2.29173 15.6616 2.49545 15.6196 2.6851 15.5392C2.87475 15.4588 3.04657 15.3415 3.19059 15.1943L8.69684 9.68926C10.3731 10.3455 12.5718 10.2168 13.9268 8.86301C15.2818 7.50801 15.5793 5.00801 14.7531 3.63176L12.3856 5.99926L9.96309 6.21926L10.1831 3.79676L12.5506 1.42926C11.1743 0.604258 8.67559 0.900508 7.31934 2.25426C5.96559 3.61051 5.83684 5.80926 6.49434 7.48676Z" stroke="#6C6D87" stroke-width="1.04125" stroke-linecap="round" stroke-linejoin="round"/>
</svg>
