<svg width="16" height="16" viewBox="0 0 16 16" fill="none" xmlns="http://www.w3.org/2000/svg">
<path d="M9.27936 1.63961C9.25171 1.63697 9.22382 1.64012 9.19745 1.64886C9.17109 1.65759 9.14683 1.67173 9.12623 1.69035C9.10562 1.70898 9.08913 1.73169 9.07779 1.75705C9.06645 1.7824 9.06051 1.80984 9.06036 1.83761V5.58661C9.06036 5.69661 9.15036 5.80661 9.23836 5.87261C9.29436 5.91461 9.35236 5.96661 9.40236 6.01761C9.47536 6.09161 9.59036 6.11761 9.68136 6.06661L12.9364 4.21261C12.9605 4.19861 12.9815 4.17969 12.9979 4.15709C13.0143 4.13448 13.0258 4.10869 13.0317 4.08137C13.0375 4.05404 13.0376 4.0258 13.0318 3.99846C13.0261 3.97112 13.0147 3.94528 12.9984 3.92261C12.5014 3.24761 12.0304 2.73861 11.2794 2.30661C10.5294 1.87461 10.0754 1.72861 9.27936 1.63961ZM14.0614 5.78161C14.0498 5.7564 14.033 5.73388 14.0123 5.71548C13.9915 5.69708 13.9671 5.68321 13.9407 5.67474C13.9142 5.66628 13.8863 5.66341 13.8587 5.66631C13.8311 5.66922 13.8044 5.67783 13.7804 5.69161L10.5224 7.57161C10.4254 7.62761 10.3824 7.78461 10.3874 7.89661C10.3914 7.99461 10.4374 8.10561 10.5224 8.15461L13.8124 10.0546C13.8366 10.0685 13.8635 10.0772 13.8913 10.08C13.9191 10.0829 13.9472 10.0799 13.9738 10.0712C14.0003 10.0625 14.0248 10.0484 14.0456 10.0297C14.0663 10.011 14.083 9.98813 14.0944 9.96261C14.4204 9.22861 14.5704 8.75461 14.5704 7.89261C14.5704 7.02961 14.3924 6.52061 14.0614 5.78161ZM7.92336 10.3496C7.3501 10.3654 6.79063 10.1724 6.34899 9.80658C5.90735 9.44075 5.61362 8.92697 5.52241 8.36079C5.43121 7.79461 5.54874 7.21458 5.85316 6.72857C6.15757 6.24256 6.62815 5.88366 7.17736 5.71861C7.22124 5.70647 7.25999 5.68041 7.28776 5.64433C7.31554 5.60826 7.33084 5.56414 7.33136 5.51861V1.72861C7.3317 1.70087 7.32611 1.67337 7.31496 1.64795C7.30382 1.62254 7.28738 1.59979 7.26675 1.58124C7.24611 1.56269 7.22176 1.54875 7.1953 1.54037C7.16885 1.53198 7.14092 1.52934 7.11336 1.53261C6.0496 1.66786 5.03578 2.06403 4.16216 2.68584C3.28853 3.30766 2.58221 4.13584 2.10605 5.09665C1.6299 6.05746 1.3987 7.12109 1.43302 8.19286C1.46735 9.26464 1.76613 10.3113 2.30279 11.2397C2.83945 12.168 3.59732 12.9493 4.50894 13.514C5.42056 14.0786 6.45765 14.4091 7.52789 14.476C8.59812 14.5429 9.66829 14.3442 10.6431 13.8974C11.618 13.4507 12.4673 12.7699 13.1154 11.9156C13.132 11.8934 13.1438 11.8679 13.1498 11.8408C13.1559 11.8138 13.1561 11.7857 13.1504 11.7585C13.1447 11.7314 13.1333 11.7057 13.1169 11.6833C13.1005 11.6609 13.0795 11.6423 13.0554 11.6286L9.74236 9.71761C9.70348 9.69587 9.65868 9.68706 9.61446 9.69246C9.57024 9.69785 9.52888 9.71717 9.49636 9.74761C9.06406 10.1353 8.50402 10.349 7.92336 10.3496Z" stroke="black"/>
</svg>
