<svg width="26" height="26" viewBox="0 0 26 26" fill="none" xmlns="http://www.w3.org/2000/svg">
<path fill-rule="evenodd" clip-rule="evenodd" d="M13 26C20.18 26 26 20.18 26 13C26 5.82 20.18 0 13 0C6.612 0 1.3 4.608 0.206 10.682C1.592 10.514 3.216 10.4 4.4 10.402C5.933 10.404 8.2 10.648 9.42 10.902C9.68905 10.4772 10.0792 10.1427 10.5401 9.94162C11.001 9.74057 11.5116 9.68219 12.006 9.774C12.598 8.534 12.963 7.789 14.051 6.239C15.184 4.625 17.6 3.607 17.6 3.999C17.6 4.8 17.53 5.808 16.4 7.599C15.588 8.886 14.55 10.041 13.688 10.886C14.106 11.516 14.245 12.321 13.998 13.091C13.908 13.373 13.773 13.628 13.604 13.85C14.229 15.067 14.869 16.563 15.453 17.928C15.643 18.371 15.826 18.8 16.001 19.201C16.8 21.031 16.721 24.17 16.401 23.999C15.431 23.485 13.891 21.691 13.201 20.001C13.098 19.749 12.981 19.469 12.858 19.171L12.857 19.169C12.263 17.739 11.499 15.899 11.231 14.811C10.7953 14.7453 10.3836 14.5694 10.0348 14.3001C9.68603 14.0308 9.41178 13.6769 9.238 13.272L9.201 13.27C7.654 13.177 5.976 13.076 4.405 12.852C3.24 12.685 1.363 12.045 0.082 11.528C0.028 12.011 0 12.502 0 13C0 20.18 5.82 26 13 26Z" fill="url(#paint0_linear_799_191589)"/>
<defs>
<linearGradient id="paint0_linear_799_191589" x1="6.5" y1="1.742" x2="19.5" y2="24.258" gradientUnits="userSpaceOnUse">
<stop stop-color="#62F91F"/>
<stop offset="1" stop-color="#45BD35"/>
</linearGradient>
</defs>
</svg>
