<svg width="22" height="22" viewBox="0 0 22 22" fill="none" xmlns="http://www.w3.org/2000/svg">
<mask id="mask0_385_20554" style="mask-type:alpha" maskUnits="userSpaceOnUse" x="3" y="2" width="16" height="18">
<path d="M17.5312 9.97429C17.5312 10.354 17.2234 10.6618 16.8438 10.6618C16.4641 10.6618 16.1562 10.354 16.1562 9.97429C16.1562 9.59459 16.4641 9.28679 16.8438 9.28679C17.2234 9.28679 17.5312 9.59459 17.5312 9.97429Z" fill="black"/>
<path d="M5.84375 12.039C5.84375 12.4187 5.53595 12.7265 5.15625 12.7265C4.77655 12.7265 4.46875 12.4187 4.46875 12.039C4.46875 11.6593 4.77655 11.3515 5.15625 11.3515C5.53595 11.3515 5.84375 11.6593 5.84375 12.039Z" fill="black"/>
<path d="M5.84375 16.3024C5.84375 16.6821 5.53595 16.9899 5.15625 16.9899C4.77655 16.9899 4.46875 16.6821 4.46875 16.3024C4.46875 15.9227 4.77655 15.6149 5.15625 15.6149C5.53595 15.6149 5.84375 15.9227 5.84375 16.3024Z" fill="black"/>
<path d="M17.5312 5.84108C17.5312 6.22078 17.2234 6.52858 16.8438 6.52858C16.4641 6.52858 16.1562 6.22078 16.1562 5.84108C16.1562 5.46139 16.4641 5.15358 16.8438 5.15358C17.2234 5.15358 17.5312 5.46139 17.5312 5.84108Z" fill="black"/>
<path d="M4.54625 12.0312C4.54625 12.3681 4.81936 12.6412 5.15625 12.6412C5.49314 12.6412 5.76625 12.3681 5.76625 12.0312H5.15625H4.54625ZM8.07812 3.09375V2.48375V3.09375ZM17.4537 9.96875C17.4537 9.63186 17.1806 9.35875 16.8438 9.35875C16.5069 9.35875 16.2338 9.63186 16.2338 9.96875H16.8438H17.4537ZM5.15625 12.0312H5.76625V5.86667H5.15625H4.54625V12.0312H5.15625ZM5.15625 5.86667H5.76625C5.76625 5.30363 6.00164 4.75677 6.43196 4.34838L6.01205 3.90592L5.59214 3.46345C4.92654 4.09511 4.54625 4.95886 4.54625 5.86667H5.15625ZM6.01205 3.90592L6.43196 4.34838C6.86336 3.93897 7.45498 3.70375 8.07812 3.70375V3.09375V2.48375C7.15141 2.48375 6.25665 2.83282 5.59214 3.46345L6.01205 3.90592ZM8.07812 3.09375V3.70375C8.70127 3.70375 9.29289 3.93897 9.72429 4.34838L10.1442 3.90592L10.5641 3.46345C9.8996 2.83282 9.00484 2.48375 8.07812 2.48375V3.09375ZM10.1442 3.90592L9.72429 4.34838C10.1546 4.75677 10.39 5.30363 10.39 5.86667H11H11.61C11.61 4.95886 11.2297 4.09511 10.5641 3.46345L10.1442 3.90592ZM11 5.86667H10.39V16.1333H11H11.61V5.86667H11ZM11 16.1333H10.39C10.39 16.7301 10.4749 17.1933 10.677 17.5967C10.8748 17.9912 11.1603 18.275 11.4359 18.5365L11.8558 18.0941L12.2757 17.6516C12.0033 17.3931 11.861 17.2361 11.7678 17.0501C11.679 16.8729 11.61 16.6157 11.61 16.1333H11ZM11.8558 18.0941L11.4359 18.5365C12.1004 19.1672 12.9952 19.5163 13.9219 19.5163V18.9062V18.2963C13.2987 18.2963 12.7071 18.061 12.2757 17.6516L11.8558 18.0941ZM13.9219 18.9062V19.5163C14.8486 19.5163 15.7434 19.1672 16.4079 18.5365L15.988 18.0941L15.568 17.6516C15.1366 18.061 14.545 18.2963 13.9219 18.2963V18.9062ZM15.988 18.0941L16.4079 18.5365C17.0735 17.9049 17.4537 17.0411 17.4537 16.1333H16.8438H16.2338C16.2338 16.6964 15.9984 17.2432 15.568 17.6516L15.988 18.0941ZM16.8438 16.1333H17.4537V9.96875H16.8438H16.2338V16.1333H16.8438ZM17.5312 9.97429H16.9213C16.9213 10.0171 16.8866 10.0518 16.8438 10.0518V10.6618V11.2718C17.5603 11.2718 18.1412 10.6909 18.1412 9.97429H17.5312ZM16.8438 10.6618V10.0518C16.8009 10.0518 16.7662 10.0171 16.7662 9.97429H16.1562H15.5463C15.5463 10.6909 16.1272 11.2718 16.8438 11.2718V10.6618ZM16.1562 9.97429H16.7662C16.7662 9.93149 16.8009 9.89679 16.8438 9.89679V9.28679V8.67679C16.1272 8.67679 15.5463 9.2577 15.5463 9.97429H16.1562ZM16.8438 9.28679V9.89679C16.8866 9.89679 16.9213 9.93149 16.9213 9.97429H17.5312H18.1412C18.1412 9.2577 17.5603 8.67679 16.8438 8.67679V9.28679ZM5.84375 12.039H5.23375C5.23375 12.0818 5.19905 12.1165 5.15625 12.1165V12.7265V13.3365C5.87284 13.3365 6.45375 12.7556 6.45375 12.039H5.84375ZM5.15625 12.7265V12.1165C5.11345 12.1165 5.07875 12.0818 5.07875 12.039H4.46875H3.85875C3.85875 12.7556 4.43966 13.3365 5.15625 13.3365V12.7265ZM4.46875 12.039H5.07875C5.07875 11.9962 5.11345 11.9615 5.15625 11.9615V11.3515V10.7415C4.43966 10.7415 3.85875 11.3224 3.85875 12.039H4.46875ZM5.15625 11.3515V11.9615C5.19905 11.9615 5.23375 11.9962 5.23375 12.039H5.84375H6.45375C6.45375 11.3224 5.87284 10.7415 5.15625 10.7415V11.3515ZM5.84375 16.3024H5.23375C5.23375 16.3452 5.19905 16.3799 5.15625 16.3799V16.9899V17.5999C5.87284 17.5999 6.45375 17.019 6.45375 16.3024H5.84375ZM5.15625 16.9899V16.3799C5.11345 16.3799 5.07875 16.3452 5.07875 16.3024H4.46875H3.85875C3.85875 17.019 4.43966 17.5999 5.15625 17.5999V16.9899ZM4.46875 16.3024H5.07875C5.07875 16.2596 5.11345 16.2249 5.15625 16.2249V15.6149V15.0049C4.43966 15.0049 3.85875 15.5858 3.85875 16.3024H4.46875ZM5.15625 15.6149V16.2249C5.19905 16.2249 5.23375 16.2596 5.23375 16.3024H5.84375H6.45375C6.45375 15.5858 5.87284 15.0049 5.15625 15.0049V15.6149ZM17.5312 5.84108H16.9213C16.9213 5.88388 16.8866 5.91858 16.8438 5.91858V6.52858V7.13858C17.5603 7.13858 18.1412 6.55767 18.1412 5.84108H17.5312ZM16.8438 6.52858V5.91858C16.8009 5.91858 16.7662 5.88388 16.7662 5.84108H16.1562H15.5463C15.5463 6.55767 16.1272 7.13858 16.8438 7.13858V6.52858ZM16.1562 5.84108H16.7662C16.7662 5.79828 16.8009 5.76358 16.8438 5.76358V5.15358V4.54358C16.1272 4.54358 15.5463 5.12449 15.5463 5.84108H16.1562ZM16.8438 5.15358V5.76358C16.8866 5.76358 16.9213 5.79828 16.9213 5.84108H17.5312H18.1412C18.1412 5.12449 17.5603 4.54358 16.8438 4.54358V5.15358Z" fill="black"/>
</mask>
<g mask="url(#mask0_385_20554)">
<rect width="22" height="22" fill="#343A47"/>
</g>
</svg>
