<svg width="20" height="20" viewBox="0 0 20 20" fill="none" xmlns="http://www.w3.org/2000/svg">
<path d="M3.73125 10.9337L7.76875 13.445M9.6875 11.51L9.63 19M9.6875 11.51L2 6.92M9.6875 11.51C9.6875 11.51 10.0775 11.2225 10.4938 10.935M9.63 19L17 14.9187V11.5M9.63 19L2 14.725V6.92M2 6.92C3.86875 5.76 5.3175 5.1525 7.1925 4" stroke="#6C6D87" stroke-linecap="round" stroke-linejoin="round"/>
<path fill-rule="evenodd" clip-rule="evenodd" d="M17.3845 6.73758L16.7095 6.19008C16.7735 5.81656 16.7735 5.43486 16.7095 5.06133L17.3845 4.51383C17.4347 4.47399 17.4709 4.41923 17.488 4.35745C17.5051 4.29566 17.5021 4.23005 17.4795 4.17008L17.4707 4.14508C17.2822 3.64929 17.0034 3.19281 16.6482 2.79883L16.6295 2.77758C16.5844 2.72881 16.5262 2.69411 16.4619 2.6777C16.3976 2.66128 16.3299 2.66385 16.267 2.68508L15.4295 2.96758C15.1187 2.72645 14.7714 2.53656 14.4007 2.40508L14.2382 1.57508C14.2245 1.51115 14.1918 1.45289 14.1442 1.40802C14.0967 1.36315 14.0366 1.33379 13.972 1.32383L13.9445 1.31883C13.4017 1.22706 12.8473 1.22706 12.3045 1.31883L12.277 1.32383C12.2125 1.3337 12.1526 1.36288 12.1051 1.40751C12.0575 1.45214 12.0246 1.51013 12.0107 1.57383L11.8482 2.40883C11.4798 2.54002 11.1347 2.72906 10.8257 2.96883L9.98073 2.68508C9.91784 2.66369 9.85009 2.66104 9.78573 2.67747C9.72137 2.69389 9.66317 2.72867 9.61823 2.77758L9.60073 2.79883C9.24597 3.19309 8.96712 3.6495 8.77822 4.14508L8.76947 4.17008C8.74685 4.23005 8.74386 4.29566 8.76093 4.35745C8.778 4.41923 8.81426 4.47399 8.86447 4.51383L9.54947 5.06758C9.48539 5.43649 9.48539 5.81368 9.54947 6.18258L8.86447 6.73508C8.81426 6.77492 8.778 6.82969 8.76093 6.89147C8.74386 6.95325 8.74685 7.01886 8.76947 7.07883L8.77822 7.10383C8.96572 7.59633 9.24073 8.05133 9.60073 8.45133L9.61948 8.47133C9.70698 8.57133 9.85198 8.60758 9.98198 8.56383L10.8257 8.28008C11.1332 8.52008 11.477 8.70883 11.847 8.84133L12.0095 9.67508C12.0345 9.80258 12.1407 9.90258 12.277 9.92508L12.3045 9.93008C12.8472 10.0224 13.4017 10.0224 13.9445 9.93008L13.972 9.92633C14.0366 9.91638 14.0967 9.88702 14.1442 9.84215C14.1918 9.79728 14.2245 9.73901 14.2382 9.67508L14.4007 8.84508C14.7745 8.71133 15.1195 8.52383 15.4295 8.28258L16.267 8.56383C16.3299 8.58523 16.3976 8.58787 16.462 8.57145C16.5263 8.55503 16.5845 8.52024 16.6295 8.47133L16.6482 8.45133C17.007 8.05008 17.2845 7.59633 17.4707 7.10383L17.4795 7.07883C17.5019 7.01923 17.5048 6.95404 17.4877 6.89269C17.4706 6.83134 17.4345 6.77702 17.3845 6.73758ZM15.9745 5.17508C16.0266 5.47323 16.0266 5.77818 15.9745 6.07633L15.907 6.46758L16.677 7.09258C16.5597 7.34867 16.4124 7.58994 16.2382 7.81133L15.2807 7.49008L14.9557 7.74133C14.7089 7.9332 14.4329 8.08428 14.1382 8.18883L13.7457 8.32883L13.5607 9.27633C13.2695 9.30753 12.9757 9.30753 12.6845 9.27633L12.4995 8.32508L12.1095 8.18383C11.8167 8.07916 11.5424 7.92852 11.297 7.73758L10.9732 7.48383L10.0107 7.80883C9.83678 7.58705 9.68913 7.34586 9.57073 7.09008L10.3495 6.46008L10.282 6.06883C10.2324 5.77508 10.2324 5.47509 10.282 5.18133L10.3495 4.79008L9.57073 4.16008C9.68698 3.90508 9.83448 3.66508 10.0095 3.44133L10.9732 3.76633L11.2982 3.51258C11.542 3.32258 11.8157 3.17133 12.1095 3.06633L12.5007 2.92633L12.6845 1.97633C12.9761 1.94504 13.2703 1.94504 13.562 1.97633L13.747 2.92508L14.1395 3.06383C14.4357 3.17008 14.7107 3.32008 14.957 3.51133L15.282 3.76383L16.2382 3.44258C16.4132 3.66633 16.5607 3.90758 16.6782 4.16133L15.9082 4.78508L15.9745 5.17508Z" fill="#6C6D87"/>
<path fill-rule="evenodd" clip-rule="evenodd" d="M13.1661 3.81641C12.719 3.81641 12.2903 3.994 11.9742 4.31011C11.6581 4.62623 11.4805 5.05498 11.4805 5.50203C11.4805 5.94909 11.6581 6.37783 11.9742 6.69395C12.2903 7.01006 12.719 7.18766 13.1661 7.18766C13.6131 7.18766 14.0419 7.01006 14.358 6.69395C14.6741 6.37783 14.8517 5.94909 14.8517 5.50203C14.8517 5.05498 14.6741 4.62623 14.358 4.31011C14.0419 3.994 13.6131 3.81641 13.1661 3.81641ZM13.9248 6.26141C13.8255 6.36137 13.7074 6.44071 13.5773 6.49484C13.4472 6.54898 13.3076 6.57685 13.1667 6.57685C13.0258 6.57685 12.8863 6.54898 12.7562 6.49484C12.626 6.44071 12.5079 6.36137 12.4086 6.26141C12.3086 6.16208 12.2293 6.04396 12.1752 5.91385C12.121 5.78374 12.0932 5.6442 12.0932 5.50328C12.0932 5.36236 12.121 5.22283 12.1752 5.09272C12.2293 4.96261 12.3086 4.84449 12.4086 4.74516C12.5078 4.64518 12.6258 4.56586 12.7558 4.51179C12.8858 4.45772 13.0253 4.42997 13.1661 4.43016C13.3791 4.42818 13.5879 4.48992 13.7656 4.60745C13.9433 4.72498 14.0818 4.89294 14.1634 5.08977C14.2449 5.28659 14.2658 5.50329 14.2233 5.71206C14.1808 5.92083 14.0769 6.11213 13.9248 6.26141Z" fill="#6C6D87"/>
</svg>
