<svg width="20" height="20" viewBox="0 0 20 20" fill="none" xmlns="http://www.w3.org/2000/svg">
<mask id="mask0_965_70128" style="mask-type:alpha" maskUnits="userSpaceOnUse" x="2" y="5" width="16" height="10">
<path d="M6.59091 14.091V13.4092C6.59091 11.5264 8.11721 10.0001 10 10.0001M10 10.0001C11.8828 10.0001 13.4091 11.5264 13.4091 13.4092V14.091M10 10.0001C11.1297 10.0001 12.0455 9.08434 12.0455 7.95463C12.0455 6.82496 11.1297 5.90918 10 5.90918C8.87029 5.90918 7.95454 6.82496 7.95454 7.95463C7.95454 9.08434 8.87029 10.0001 10 10.0001ZM2.5 14.091V13.4092C2.5 12.2795 3.41578 11.3637 4.54545 11.3637M4.54545 11.3637C5.29857 11.3637 5.90909 10.7532 5.90909 10.0001C5.90909 9.24695 5.29857 8.63645 4.54545 8.63645C3.79234 8.63645 3.18182 9.24695 3.18182 10.0001C3.18182 10.7532 3.79234 11.3637 4.54545 11.3637ZM17.5 14.091V13.4092C17.5 12.2795 16.5842 11.3637 15.4545 11.3637M15.4545 11.3637C16.2077 11.3637 16.8182 10.7532 16.8182 10.0001C16.8182 9.24695 16.2077 8.63645 15.4545 8.63645C14.7014 8.63645 14.0909 9.24695 14.0909 10.0001C14.0909 10.7532 14.7014 11.3637 15.4545 11.3637Z" stroke="black" stroke-linecap="round" stroke-linejoin="round"/>
</mask>
<g mask="url(#mask0_965_70128)">
<rect width="20" height="20" fill="#6C6D87"/>
</g>
</svg>
