<svg width="16" height="16" viewBox="0 0 16 16" fill="none" xmlns="http://www.w3.org/2000/svg">
<path d="M14 8V2.4C14 2.29391 13.9579 2.19217 13.8828 2.11716C13.8078 2.04214 13.7061 2 13.6 2H8M14 8H8M14 8V13.6C14 13.7061 13.9579 13.8078 13.8828 13.8828C13.8078 13.9579 13.7061 14 13.6 14H8M8 2V8M8 2H2.4C2.29391 2 2.19217 2.04214 2.11716 2.11716C2.04214 2.19217 2 2.29391 2 2.4V8M8 8V14M8 8H2M8 14H2.4C2.29391 14 2.19217 13.9579 2.11716 13.8828C2.04214 13.8078 2 13.7061 2 13.6V8" stroke="black"/>
</svg>
