<svg width="17" height="17" viewBox="0 0 17 17" fill="none" xmlns="http://www.w3.org/2000/svg">
<path d="M0.5625 4.22937V1.0625C0.5625 0.929892 0.615178 0.802715 0.708947 0.708947C0.802715 0.615178 0.929892 0.5625 1.0625 0.5625H5.89562C5.96129 0.5625 6.0263 0.575433 6.08697 0.60056C6.14763 0.625688 6.20275 0.662517 6.24918 0.708947C6.29561 0.755376 6.33244 0.810495 6.35756 0.871158C6.38269 0.931821 6.39563 0.996839 6.39563 1.0625V4.22937C6.39563 4.29504 6.38269 4.36005 6.35756 4.42072C6.33244 4.48138 6.29561 4.5365 6.24918 4.58293C6.20275 4.62936 6.14763 4.66619 6.08697 4.69131C6.0263 4.71644 5.96129 4.72937 5.89562 4.72937H1.0625C0.929892 4.72937 0.802715 4.6767 0.708947 4.58293C0.615178 4.48916 0.5625 4.36198 0.5625 4.22937ZM9.72875 15.0625V11.8963C9.72875 11.7636 9.78143 11.6365 9.8752 11.5427C9.96896 11.4489 10.0961 11.3962 10.2287 11.3962H15.0625C15.1951 11.3962 15.3223 11.4489 15.4161 11.5427C15.5098 11.6365 15.5625 11.7636 15.5625 11.8963V15.0625C15.5625 15.1951 15.5098 15.3223 15.4161 15.4161C15.3223 15.5098 15.1951 15.5625 15.0625 15.5625H10.2294C10.0968 15.5625 9.96959 15.5098 9.87582 15.4161C9.78205 15.3223 9.72875 15.1951 9.72875 15.0625ZM9.72875 8.39563V1.0625C9.72875 0.929892 9.78143 0.802715 9.8752 0.708947C9.96896 0.615178 10.0961 0.5625 10.2287 0.5625H15.0625C15.1951 0.5625 15.3223 0.615178 15.4161 0.708947C15.5098 0.802715 15.5625 0.929892 15.5625 1.0625V8.39563C15.5625 8.52823 15.5098 8.65541 15.4161 8.74918C15.3223 8.84295 15.1951 8.89563 15.0625 8.89563H10.2294C10.0968 8.89563 9.96959 8.84295 9.87582 8.74918C9.78205 8.65541 9.72875 8.52823 9.72875 8.39563ZM0.5625 15.0625V7.72938C0.5625 7.59677 0.615178 7.46959 0.708947 7.37582C0.802715 7.28205 0.929892 7.22937 1.0625 7.22937H5.89562C5.96129 7.22937 6.0263 7.24231 6.08697 7.26744C6.14763 7.29256 6.20275 7.32939 6.24918 7.37582C6.29561 7.42225 6.33244 7.47737 6.35756 7.53803C6.38269 7.5987 6.39563 7.66371 6.39563 7.72938V15.0625C6.39563 15.1282 6.38269 15.1932 6.35756 15.2538C6.33244 15.3145 6.29561 15.3696 6.24918 15.4161C6.20275 15.4625 6.14763 15.4993 6.08697 15.5244C6.0263 15.5496 5.96129 15.5625 5.89562 15.5625H1.0625C0.929892 15.5625 0.802715 15.5098 0.708947 15.4161C0.615178 15.3223 0.5625 15.1951 0.5625 15.0625Z" stroke="#6C6D87" stroke-width="1.125"/>
</svg>
