<svg width="16" height="16" viewBox="0 0 16 16" fill="none" xmlns="http://www.w3.org/2000/svg">
<mask id="mask0_953_30919" style="mask-type:alpha" maskUnits="userSpaceOnUse" x="1" y="1" width="14" height="15">
<path d="M2.09091 14.5005C1.76456 14.5005 1.5 14.2359 1.5 13.9096C1.5 13.5832 1.76456 13.3187 2.09091 13.3187C2.41726 13.3187 2.68182 13.5832 2.68182 13.9096C2.68182 14.2359 2.41726 14.5005 2.09091 14.5005Z" fill="black"/>
<path d="M8 14.5005C7.67365 14.5005 7.40909 14.2359 7.40909 13.9096C7.40909 13.5832 7.67365 13.3187 8 13.3187C8.32635 13.3187 8.59091 13.5832 8.59091 13.9096C8.59091 14.2359 8.32635 14.5005 8 14.5005Z" fill="black"/>
<path d="M13.9091 14.5005C13.5827 14.5005 13.3182 14.2359 13.3182 13.9096C13.3182 13.5832 13.5827 13.3187 13.9091 13.3187C14.2354 13.3187 14.5 13.5832 14.5 13.9096C14.5 14.2359 14.2354 14.5005 13.9091 14.5005Z" fill="black"/>
<path d="M2.09091 13.9096V9.77322C2.09091 9.44687 2.35547 9.18231 2.68182 9.18231H13.3182C13.6445 9.18231 13.9091 9.44687 13.9091 9.77322V13.9096M8 9.18231V13.3187M8 13.3187C7.67365 13.3187 7.40909 13.5832 7.40909 13.9096C7.40909 14.2359 7.67365 14.5005 8 14.5005C8.32635 14.5005 8.59091 14.2359 8.59091 13.9096C8.59091 13.5832 8.32635 13.3187 8 13.3187ZM2.09091 14.5005C1.76456 14.5005 1.5 14.2359 1.5 13.9096C1.5 13.5832 1.76456 13.3187 2.09091 13.3187C2.41726 13.3187 2.68182 13.5832 2.68182 13.9096C2.68182 14.2359 2.41726 14.5005 2.09091 14.5005ZM13.9091 14.5005C13.5827 14.5005 13.3182 14.2359 13.3182 13.9096C13.3182 13.5832 13.5827 13.3187 13.9091 13.3187C14.2354 13.3187 14.5 13.5832 14.5 13.9096C14.5 14.2359 14.2354 14.5005 13.9091 14.5005ZM5.87273 6.22776H10.1273C10.2578 6.22776 10.3636 6.12194 10.3636 5.9914V1.73685C10.3636 1.60631 10.2578 1.50049 10.1273 1.50049H5.87273C5.74219 1.50049 5.63636 1.60631 5.63636 1.73685V5.9914C5.63636 6.12194 5.74219 6.22776 5.87273 6.22776Z" stroke="black"/>
</mask>
<g mask="url(#mask0_953_30919)">
<rect width="16" height="16" fill="#6D6F78"/>
</g>
</svg>
