<svg width="16" height="18" viewBox="0 0 16 18" fill="none" xmlns="http://www.w3.org/2000/svg">
<path fill-rule="evenodd" clip-rule="evenodd" d="M7.94625 0.0837342C7.85124 0.028879 7.74346 0 7.63375 0C7.52404 0 7.41626 0.028879 7.32125 0.0837342L0.3125 4.12623C0.21749 4.18109 0.138593 4.25998 0.0837381 4.35499C0.0288831 4.45 2.81446e-06 4.55778 2.74473e-08 4.66748V12.46C-3.23462e-05 12.5692 0.028574 12.6766 0.0829669 12.7713C0.13736 12.8661 0.215639 12.9449 0.31 13L7.6475 17.2687C7.74266 17.3238 7.85067 17.3528 7.96063 17.3528C8.07058 17.3528 8.17859 17.3238 8.27375 17.2687L15.3125 13.195C15.4075 13.1401 15.4864 13.0612 15.5413 12.9662C15.5961 12.8712 15.625 12.7634 15.625 12.6537V8.02373C15.625 7.85797 15.5592 7.699 15.4419 7.58179C15.3247 7.46458 15.1658 7.39873 15 7.39873C14.8342 7.39873 14.6753 7.46458 14.5581 7.58179C14.4408 7.699 14.375 7.85797 14.375 8.02373V12.295L8.59375 15.6412L8.6375 9.30373L15.3125 5.43998C15.4072 5.38504 15.4858 5.30618 15.5405 5.2113C15.5951 5.11642 15.6239 5.00885 15.6239 4.89936C15.6239 4.78987 15.5951 4.68229 15.5405 4.58741C15.4858 4.49253 15.4072 4.41367 15.3125 4.35873L7.945 0.0837342H7.94625ZM7.38875 9.30123L7.345 15.6475L1.25125 12.1012V5.75123L7.38875 9.30123ZM8.01625 8.21999L1.875 4.66998L7.6325 1.34623L13.7537 4.89873L8.01625 8.21999ZM3.18625 8.13498C3.11514 8.0933 3.03649 8.06609 2.95483 8.05492C2.87316 8.04376 2.7901 8.04885 2.71041 8.06992C2.63072 8.09099 2.55599 8.12761 2.49051 8.17768C2.42504 8.22775 2.37011 8.29027 2.3289 8.36165C2.28768 8.43304 2.261 8.51186 2.25037 8.5936C2.23975 8.67534 2.2454 8.75837 2.26699 8.83792C2.28859 8.91746 2.32571 8.99195 2.37621 9.05709C2.42671 9.12224 2.4896 9.17675 2.56125 9.21748L5.2675 10.78C5.33861 10.8217 5.41726 10.8489 5.49892 10.86C5.58059 10.8712 5.66365 10.8661 5.74334 10.845C5.82303 10.824 5.89776 10.7874 5.96324 10.7373C6.02871 10.6872 6.08364 10.6247 6.12485 10.5533C6.16607 10.4819 6.19275 10.4031 6.20338 10.3214C6.214 10.2396 6.20835 10.1566 6.18676 10.0771C6.16516 9.99751 6.12804 9.92302 6.07754 9.85787C6.02704 9.79273 5.96415 9.73822 5.8925 9.69748L3.18625 8.13498Z" fill="#6C6D87"/>
</svg>
